<svg id="Capa_1" enable-background="new 0 0 512 512" height="512" viewBox="0 0 512 512" width="512" xmlns="http://www.w3.org/2000/svg"><g><path d="m512 109.71v73.15l-36.57 36.57h-36.57l-36.57 73.14h36.57v109.72h36.57v36.57l-36.57 36.57h-36.57l-36.58-36.57h-36.57l-73.14 73.14h-182.86v-33.78l36.57-75.93v-73.15l-36.57-36.57-73.14-36.57v-73.14h73.14v-73.15h36.57l36.58 36.58h36.57v-73.15h36.57l36.57-73.14h36.57l146.29 109.71z" fill="#91e5a8"/><path d="m512 109.71v73.15l-36.57 36.57h-36.57l-36.57 73.14h36.57v109.72h36.57v36.57l-36.57 36.57h-36.57l-36.58-36.57h-36.57l-73.14 73.14v-512h36.57l146.29 109.71z" fill="#26c0a6"/><path d="m356.7 264.748c0 67.13-100.7 167.83-100.7 167.83s-100.7-100.7-100.7-167.83c0-55.61 45.09-100.7 100.7-100.7s100.7 45.09 100.7 100.7z" fill="#fe4a4a"/><path d="m356.7 264.748c0 67.13-100.7 167.83-100.7 167.83v-268.53c55.61 0 100.7 45.09 100.7 100.7z" fill="#e80b6a"/><path d="m298.529 261.467c0 23.492-19.038 42.541-42.529 42.541s-42.529-19.049-42.529-42.541c0-23.48 19.038-42.529 42.529-42.529s42.529 19.049 42.529 42.529z" fill="#f0f8ff"/><path d="m298.529 261.467c0 23.492-19.038 42.541-42.529 42.541v-85.07c23.492 0 42.529 19.049 42.529 42.529z" fill="#e3eeff"/></g></svg>