<svg id="filled_outline" height="512" viewBox="0 0 512 512" width="512" xmlns="http://www.w3.org/2000/svg" data-name="filled outline"><path d="m488 184v304l-96-66.46-8-5.54h-256l-8 5.54-96 66.46v-304l96-66.46 8-5.54h96l32 40 40-40h88l8 5.54z" fill="#ffc431"/><path d="m256 24a71.99989 71.99989 0 0 0 -72 72c0 39.7644 72 152 72 152s72-112.2356 72-152a71.99989 71.99989 0 0 0 -72-72zm0 104a32 32 0 1 1 32-32 32 32 0 0 1 -32 32z" fill="#ef5e3b"/><path d="m192 320h128v168h-128z" fill="#6173e8"/><path d="m192 320h128l-64-40z" fill="#3d4ede"/><path d="m168 424v-16h-32v-144h80v-16h-88a7.99606 7.99606 0 0 0 -4.55371 1.42285l-91.44629 63.30908v-124.54052l88-60.92286v96.73145h16v-104h24v-16h-32a7.99606 7.99606 0 0 0 -4.55371 1.42285l-104 72a7.9998 7.9998 0 0 0 -3.44629 6.57715v304a7.9996 7.9996 0 0 0 12.55371 6.57715l101.94529-70.57715zm-136-91.80859 88-60.92286v140.54l-88 60.9229z"/><path d="m492.55371 177.42285-104-72a7.99606 7.99606 0 0 0 -4.55371-1.42285h-32v16h24v128h-80v16h80v144h-32v16h37.501l101.94531 70.57715a7.99993 7.99993 0 0 0 12.55369-6.57715v-304a7.9998 7.9998 0 0 0 -3.44629-6.57715zm-12.55371 135.30908-88-60.92334v-124.54l88 60.92286zm-88 99.07666v-140.54l88 60.92286v140.54z"/><path d="m336 96a80 80 0 0 0 -160 0c0 17.84375 12.44043 49.71875 36.97559 94.74023 17.9292 32.89942 36.10937 61.29688 36.291 61.57911a7.99937 7.99937 0 0 0 13.4668 0c.18164-.28223 18.36181-28.67969 36.291-61.57911 24.53518-45.02148 36.97561-76.89648 36.97561-94.74023zm-80.00049 136.96582c-22.60742-36.60059-63.99951-109.32715-63.99951-136.96582a64 64 0 0 1 128 0c0 27.62793-41.39307 100.36035-64.00049 136.96582z"/><path d="m256 56a40 40 0 1 0 40 40 40.04552 40.04552 0 0 0 -40-40zm0 64a24 24 0 1 1 24-24 24.0275 24.0275 0 0 1 -24 24z"/><path d="m324.23608 313.22241.00415-.00659-64-40a8.00193 8.00193 0 0 0 -8.48046 0l-64 40 .00415.00659a7.987 7.987 0 0 0 -3.76392 6.77759v168a8.00008 8.00008 0 0 0 8 8h128a8.00008 8.00008 0 0 0 8-8v-168a7.98687 7.98687 0 0 0 -3.76392-6.77759zm-68.23608-23.78882 36.10547 22.56641h-72.211zm56 190.56641h-48v-40h-16v40h-48v-152h112z"/><path d="m216 376h16v16h-16z"/><path d="m248 376h16v16h-16z"/><path d="m280 376h16v16h-16z"/><path d="m216 344h16v16h-16z"/><path d="m248 344h16v16h-16z"/><path d="m280 344h16v16h-16z"/><path d="m216 408h16v16h-16z"/><path d="m248 408h16v16h-16z"/><path d="m280 408h16v16h-16z"/><path d="m216 440h16v16h-16z"/><path d="m280 440h16v16h-16z"/></svg>